#!OML:ASF F:\VICON\USERDATA\INSTALL\rory3\rory3.ASF
:FULLY-SPECIFIED
:DEGREES
209
root -1.17568 17.1691 9.00666 -185.695 9.38145 -183.517
lowerback 32.5676 0.297252 -1.36614
upperback 7.6056 3.00742 6.8057
thorax -8.89318 2.36622 6.72481
lowerneck -12.0407 -0.81443 -2.99382
upperneck 10.8609 1.23542 -9.51825
head 5.3309 0.0312582 -2.37833
rclavicle -1.19271e-014 3.97569e-014
rhumerus -27.4386 -47.5444 -53.8845
rradius 42.8482
rwrist -32.7017
rhand -23.6759 -4.12038
rfingers 7.12502
rthumb 2.7904 -34.0819
lclavicle -1.19271e-014 3.97569e-014
lhumerus -34.2633 -2.41709 85.6154
lradius 74.6678
lwrist 17.5957
lhand -16.871 50.7265
lfingers 7.12502
lthumb 9.3598 80.4987
rfemur -28.0052 5.74618 10.4181
rtibia 57.8298
rfoot -20.6477 -6.65568
rtoes -2.74792
lfemur -26.655 -0.170329 -26.5838
ltibia 45.2486
lfoot -8.66185 -4.15788
ltoes -10.201
210
root -1.14108 17.196 8.92362 -185.697 9.15021 -183.952
lowerback 32.1232 0.251474 -1.67188
upperback 7.59327 2.76972 6.61507
thorax -8.69421 2.23886 6.7886
lowerneck -11.7548 -0.698961 -2.84975
upperneck 10.782 1.33495 -9.5259
head 5.26099 0.0939321 -2.39364
rclavicle -7.95139e-016 -1.59028e-015
rhumerus -29.4672 -47.7862 -52.9373
rradius 45.0249
rwrist -36.4604
rhand -23.5882 -4.78325
rfingers 7.12502
rthumb 2.87507 -34.7436
lclavicle -7.95139e-016 -1.59028e-015
lhumerus -34.7394 -2.26008 85.3774
lradius 73.964
lwrist 17.5906
lhand -17.2724 50.2889
lfingers 7.12502
lthumb 8.97253 80.0781
rfemur -28.0885 6.49708 9.67015
rtibia 56.1772
rfoot -20.4029 -6.03988
rtoes -4.1066
lfemur -26.0336 -0.606228 -27.0005
ltibia 44.6706
lfoot -8.86647 -3.90987
ltoes -10.8127
211
root -1.1062 17.2266 8.84314 -185.734 8.87912 -184.238
lowerback 32.0375 0.119001 -1.87044
upperback 7.63553 2.50798 6.44281
thorax -8.57079 2.11374 6.81165
lowerneck -12.6521 -0.536084 -2.48481
upperneck 11.2299 1.62028 -9.77
head 5.56846 0.186668 -2.51678
rclavicle 3.49861e-014 8.5875e-014
rhumerus -31.0716 -47.5247 -52.5341
rradius 47.5212
rwrist -40.3169
rhand -23.281 -5.29918
rfingers 7.12502
rthumb 3.17172 -35.2553
lclavicle 3.49861e-014 8.5875e-014
lhumerus -34.9588 -2.01519 85.0799
lradius 73.1115
lwrist 17.6391
lhand -17.396 51.1412
lfingers 7.12502
lthumb 8.85318 80.9355
rfemur -28.03 7.2505 9.08816
rtibia 54.4811
rfoot -19.7988 -5.52267
rtoes -6.37372
lfemur -25.3858 -1.13057 -27.2626
ltibia 44.2005
lfoot -9.05016 -3.59562
ltoes -11.1061
212
root -1.06808 17.2538 8.7584 -185.73 8.79361 -184.191
lowerback 31.8113 0.00580461 -1.8895
upperback 7.58462 2.32823 6.42606
thorax -8.51184 2.02011 6.87601
lowerneck -12.8041 -0.39004 -1.968
upperneck 11.3171 1.81939 -10.2566
head 5.6381 0.267729 -2.74009
rclavicle 5.32743e-014 1.1609e-013
rhumerus -32.9711 -47.0489 -51.6787
rradius 49.7623
rwrist -43.4612
rhand -22.0852 -5.46902
rfingers 7.12502
rthumb 4.32653 -35.4048
lclavicle 5.32743e-014 1.1609e-013
lhumerus -35.5542 -1.72109 84.859
lradius 72.271
lwrist 17.7745
lhand -17.7111 51.3898
lfingers 7.12502
lthumb 8.54912 81.1967
rfemur -27.8196 8.19511 8.89124
rtibia 52.7345
rfoot -18.7686 -4.86525
rtoes -8.69448
lfemur -24.8087 -1.47743 -27.1251
ltibia 43.8403
lfoot -9.2014 -3.37369
ltoes -10.9964
213
root -1.03006 17.2823 8.66835 -185.69 8.65196 -183.792
lowerback 31.4918 -0.247615 -1.52552
upperback 7.55007 2.10914 6.45798
thorax -8.38476 1.90787 6.79672
lowerneck -13.0181 -0.234698 -1.50649
upperneck 11.4504 2.02129 -10.6087
head 5.73279 0.349964 -2.91304
rclavicle -4.21423e-014 -1.19271e-013
rhumerus -34.7134 -47.1522 -50.777
rradius 51.64
rwrist -45.4562
rhand -21.3663 -5.6488
rfingers 7.12502
rthumb 5.02071 -35.5693
lclavicle -4.21423e-014 -1.19271e-013
lhumerus -36.0306 -1.37773 84.5953
lradius 71.1424
lwrist 18.0112
lhand -18.2407 49.3243
lfingers 7.12502
lthumb 8.03802 79.1515
rfemur -27.4413 9.17955 9.07089
rtibia 50.992
rfoot -17.6399 -4.11074
rtoes -8.63246
lfemur -24.2557 -1.82643 -26.6244
ltibia 43.5929
lfoot -9.43928 -3.25841
ltoes -10.7689
214
root -0.987363 17.3082 8.58998 -185.715 8.46815 -183.563
lowerback 31.3274 -0.389255 -1.46452
upperback 7.51747 1.95339 6.55594
thorax -8.33922 1.83319 6.92819
lowerneck -13.6176 -0.217113 -1.73967
upperneck 12.0002 2.16041 -10.4542
head 6.0132 0.378587 -2.82253
rclavicle 3.57812e-014 1.22451e-013
rhumerus -36.4647 -47.3352 -49.6821
rradius 53.4695
rwrist -46.9348
rhand -21.2725 -5.53879
rfingers 7.12502
rthumb 5.11127 -35.4571
lclavicle 3.57812e-014 1.22451e-013
lhumerus -36.4506 -1.1245 84.5156
lradius 69.9711
lwrist 18.1561
lhand -19.139 48.7635
lfingers 7.12502
lthumb 7.17095 78.622
rfemur -27.1932 10.0832 9.12573
rtibia 49.5276
rfoot -16.3066 -3.41391
rtoes -8.88942
lfemur -23.7497 -2.1826 -26.2737
ltibia 43.4441
lfoot -9.72172 -3.23551
ltoes -10.0161
215
root -0.943636 17.3293 8.51677 -185.765 8.44192 -183.473
lowerback 31.1289 -0.431454 -1.52372
upperback 7.47284 1.853 6.54751
thorax -8.29527 1.77772 6.99184
lowerneck -13.3344 -0.104612 -1.79496
upperneck 11.9114 2.28022 -10.3571
head 5.94016 0.451718 -2.76899
rclavicle -2.78299e-014 -4.77083e-014
rhumerus -38.3795 -46.8654 -48.7146
rradius 55.6195
rwrist -48.5544
rhand -21.0191 -5.6447
rfingers 7.12502
rthumb 5.35593 -35.557
lclavicle -2.78299e-014 -4.77083e-014
lhumerus -37.0222 -0.904136 84.2874
lradius 68.9938
lwrist 18.1831
lhand -19.4903 49.1464
lfingers 7.12502
lthumb 6.83187 79.0162
rfemur -27.0378 10.8576 9.113
rtibia 48.4578
rfoot -14.8599 -2.80651
rtoes -8.57489
lfemur -23.2925 -2.38253 -26.0741
ltibia 43.3377
lfoot -9.99055 -3.07413
ltoes -10.6457
